<svg width="20" height="22" viewBox="0 0 20 22" fill="none" xmlns="http://www.w3.org/2000/svg">
<g clip-path="url(#clip0_4945_150)">
<path d="M17.1875 1.375H2.0625C1.51549 1.375 0.990886 1.5923 0.604092 1.97909C0.217298 2.36589 0 2.89049 0 3.4375L0 18.5625C0 19.1095 0.217298 19.6341 0.604092 20.0209C0.990886 20.4077 1.51549 20.625 2.0625 20.625H7.95996V14.0804H5.25293V11H7.95996V8.65219C7.95996 5.98168 9.54981 4.50656 11.9848 4.50656C13.151 4.50656 14.3705 4.71453 14.3705 4.71453V7.33563H13.0268C11.703 7.33563 11.29 8.15719 11.29 8.9998V11H14.2454L13.7728 14.0804H11.29V20.625H17.1875C17.7345 20.625 18.2591 20.4077 18.6459 20.0209C19.0327 19.6341 19.25 19.1095 19.25 18.5625V3.4375C19.25 2.89049 19.0327 2.36589 18.6459 1.97909C18.2591 1.5923 17.7345 1.375 17.1875 1.375V1.375Z" fill="#223F98"/>
</g>
<defs>
<clipPath id="clip0_4945_150">
<rect width="19.25" height="22" fill="white"/>
</clipPath>
</defs>
</svg>
