<svg width="22" height="22" viewBox="0 0 22 22" fill="none" xmlns="http://www.w3.org/2000/svg">
<path d="M5.52733 2C3.58757 2 2 3.58754 2 5.52733V16.4732C2 18.413 3.58754 20 5.52733 20H16.4732C18.413 20 20 18.413 20 16.4732V5.52733C20 3.58757 18.413 2 16.4732 2H5.52733ZM6.4145 4.97036C7.34457 4.97036 7.91746 5.58094 7.93514 6.38353C7.93514 7.1684 7.34454 7.79614 6.39651 7.79614H6.37906C5.46669 7.79614 4.87699 7.16844 4.87699 6.38353C4.87699 5.58095 5.48454 4.97036 6.41448 4.97036H6.4145ZM14.4294 8.72158C16.2181 8.72158 17.559 9.89069 17.559 12.403V17.0932H14.8407V12.7175C14.8407 11.6179 14.4473 10.8678 13.4635 10.8678C12.7125 10.8678 12.2649 11.3734 12.0683 11.8618C11.9965 12.0366 11.9789 12.2806 11.9789 12.5251V17.0932H9.26056C9.26056 17.0932 9.29623 9.6809 9.26056 8.9134H11.9795V10.0717C12.3407 9.5144 12.9869 8.72156 14.4294 8.72156V8.72158ZM5.03733 8.914H7.75567V17.0932H5.03733V8.914V8.914Z" fill="#223F98"/>
</svg>
